<?xml version="1.0" encoding="utf-8"?><svg xmlns="http://www.w3.org/2000/svg" xmlns:xlink="http://www.w3.org/1999/xlink"><symbol viewBox="0 0 24 24" id="fb" xmlns="http://www.w3.org/2000/svg"><path d="M13 7.429V10h3.5l-.5 3h-3v9H9v-9H7v-3l2.012.008V7.436c0-2.857 1.143-4.429 4.429-4.429L17 3v3h-2.571C13.143 6 13 6.429 13 7.429z"/></symbol><symbol viewBox="0 0 16 16" id="insta" xmlns="http://www.w3.org/2000/svg"><path d="M4.773 1A3.781 3.781 0 0 0 1 4.773v5.457A3.78 3.78 0 0 0 4.773 14h5.457A3.78 3.78 0 0 0 14 10.227V4.773A3.781 3.781 0 0 0 10.227 1zm0 1h5.454A2.764 2.764 0 0 1 13 4.773v5.454A2.763 2.763 0 0 1 10.23 13H4.773A2.763 2.763 0 0 1 2 10.23V4.773A2.764 2.764 0 0 1 4.773 2zM11.5 3a.499.499 0 1 0 0 1 .499.499 0 1 0 0-1zm-4 1A3.51 3.51 0 0 0 4 7.5 3.51 3.51 0 0 0 7.5 11 3.51 3.51 0 0 0 11 7.5 3.51 3.51 0 0 0 7.5 4zm0 1C8.887 5 10 6.113 10 7.5S8.887 10 7.5 10A2.492 2.492 0 0 1 5 7.5C5 6.113 6.113 5 7.5 5z"/></symbol></svg>